<?xml version="1.0" encoding="utf-8"?>
<svg version="1.1" xmlns:xlink="http://www.w3.org/1999/xlink" width="20px" height="21px" xmlns="http://www.w3.org/2000/svg">
  <g transform="matrix(1 0 0 1 -486 -289 )">
    <path d="M 19.28611266034579 0  C 19.434839189440417 0  19.56869306562558 0.04296875000000189  19.68767428890128 0.128906250000001  C 19.93307306190742 0.31640625000000033  20.033463469046296 0.5664062499999994  19.9888455103179 0.8789062500000007  L 17.13329615170106 18.87890625  C 17.096114519427402 19.10546875  16.9771332961517 19.28125  16.776352481873957 19.40625  C 16.672243911507717 19.46875  16.55698085145938 19.5  16.430563301728945 19.5  C 16.3487637107269 19.5  16.259527793270124 19.480468749999996  16.162855549358618 19.44140625  L 11.109871723368656 17.2734375  L 8.410485220301172 20.73046875  C 8.276631344116007 20.91015625  8.09444134597509 21  7.863915225878416 21  C 7.767242981966909 21  7.685443390964863 20.984375  7.6185164528722815 20.953125  C 7.477226250232386 20.8984375  7.3638222717977335 20.806640625  7.278304517568321 20.677734375  C 7.192786763338911 20.548828125  7.150027886224205 20.40625  7.150027886224205 20.25  L 7.150027886224205 16.16015625  L 16.787506971556052 3.750000000000001  L 4.8633575013943116 14.58984375  L 0.45733407696597883 12.69140625  C 0.18218999814091838 12.582031249999998  0.03346346904629113 12.3671875  0.011154489682097046 12.046875  C -0.0037181632273656827 11.734375  0.11526306004833611 11.50390625  0.3680981595092025 11.355468750000002  L 18.929168990518683 0.10546874999999933  C 19.040713887339656 0.035156249999999  19.15969511061536 0  19.28611266034579 0  Z " fill-rule="nonzero" fill="#5aa504" stroke="none" transform="matrix(1 0 0 1 486 289 )" />
  </g>
</svg>